<svg version="1.1" id="Layer_1" xmlns="http://www.w3.org/2000/svg" xmlns:xlink="http://www.w3.org/1999/xlink" x="0px" y="0px"
	 width="100%" viewBox="0 0 922 938" enable-background="new 0 0 922 938" xml:space="preserve">
<path fill="#FDFEFE" opacity="1.000000" stroke="none" 
	d="
M923.000000,334.000000 
	C923.000000,536.000000 923.000000,737.500000 923.000000,939.000000 
	C615.666687,939.000000 308.333344,939.000000 1.000000,939.000000 
	C1.000000,626.333313 1.000000,313.666656 1.000000,1.000000 
	C308.333344,1.000000 615.666687,1.000000 923.000000,1.000000 
	C923.000000,111.833336 923.000000,222.666672 923.000000,334.000000 
M289.009216,735.022583 
	C289.009216,735.022583 288.853821,735.142700 288.798157,735.879639 
	C290.994507,737.221008 293.207031,738.536682 295.384430,739.908081 
	C306.485657,746.899841 317.153351,754.735168 328.784607,760.689453 
	C342.156708,767.534973 356.350891,772.787170 370.251587,778.578918 
	C373.630341,779.986694 377.257965,780.797241 381.495667,782.106262 
	C381.696289,779.789673 381.972839,778.062988 381.975861,776.335693 
	C382.007507,758.192078 381.850098,740.046387 382.107422,721.906372 
	C382.164856,717.856445 380.580353,716.178101 377.215729,714.515503 
	C369.022186,710.467102 361.049255,705.966858 353.037964,701.556824 
	C348.615356,699.122253 344.294647,696.502625 339.387238,693.536194 
	C338.438507,692.917175 337.463379,692.334839 336.544922,691.673706 
	C317.704590,678.111572 300.937256,662.390869 286.195099,644.410828 
	C269.162720,623.637573 254.421158,601.526062 243.689560,576.794434 
	C231.549957,548.818054 224.533463,519.491272 222.660995,489.251709 
	C221.530457,470.993500 220.632980,452.416260 224.372528,434.189789 
	C227.295883,419.941467 229.734482,405.521423 233.830597,391.602081 
	C240.828720,367.821228 252.670425,346.200104 266.391571,325.643585 
	C280.369293,304.702667 298.132050,287.251373 317.520142,271.405457 
	C336.704132,255.726364 357.968018,243.491592 380.972168,234.347778 
	C400.870514,226.438477 421.502075,221.522736 443.855621,220.008255 
	C459.736908,220.668365 475.689423,220.624649 491.475952,222.221527 
	C503.142212,223.401627 515.063843,225.418015 526.027649,229.390945 
	C542.338623,235.301468 558.211304,242.663223 573.703918,250.524033 
	C590.161316,258.874329 605.188782,269.653656 618.723450,282.281738 
	C636.060730,298.457703 651.296265,316.357635 664.133301,336.424042 
	C676.200867,355.287598 684.663269,375.544891 691.493469,396.748505 
	C700.438049,424.515991 703.096558,452.873566 702.115295,481.866058 
	C701.437744,501.884186 698.166443,521.374634 693.037903,540.653625 
	C686.022522,567.025696 675.703796,591.910156 660.746399,614.848572 
	C644.840881,639.241028 625.885864,660.853027 603.277100,679.218750 
	C587.529785,692.010742 570.387329,702.617004 552.122498,711.418335 
	C546.199341,714.272522 542.365784,717.521851 542.744324,725.495056 
	C543.581116,743.121704 542.988525,760.815430 543.030579,778.481628 
	C543.034607,780.189941 543.399719,781.897339 543.729736,784.750427 
	C559.667725,777.586060 575.029053,771.404846 589.691345,763.864502 
	C601.746460,757.664917 613.479858,750.550171 624.436707,742.577820 
	C638.217712,732.550598 651.582336,721.804810 664.150269,710.302246 
	C674.582336,700.754578 683.969238,689.976135 693.159668,679.181458 
	C706.920105,663.019104 719.484558,645.886353 729.365234,627.042786 
	C740.727051,605.374329 750.899231,583.205383 757.870239,559.586182 
	C765.521423,533.661926 768.934448,507.183563 769.894165,480.355804 
	C770.734131,456.874268 769.275940,433.448792 763.866333,410.497803 
	C760.490173,396.173889 757.267883,381.671814 752.127808,367.941772 
	C745.812256,351.071594 738.184509,334.611115 730.030029,318.528168 
	C713.919495,286.753906 692.281738,259.008453 665.158752,235.895248 
	C651.803589,224.514435 637.726990,213.850952 623.199890,204.009720 
	C607.584412,193.431213 590.743958,184.773590 573.075867,177.980988 
	C554.251038,170.743637 535.360962,163.624924 515.255554,160.646118 
	C502.110596,158.698547 488.996582,156.253998 475.775574,155.194916 
	C464.349091,154.279602 452.786102,154.805222 441.293884,155.100052 
	C436.495575,155.223160 431.724243,156.397430 426.336823,157.600464 
	C412.295959,160.065598 397.991760,161.547165 384.274109,165.219650 
	C362.072937,171.163361 340.989990,180.179642 320.899933,191.570999 
	C287.791290,210.344070 258.307861,233.272736 233.301422,262.242920 
	C220.764542,276.766968 209.300781,291.697571 199.464783,308.194397 
	C187.527542,328.215363 178.130951,349.271423 170.845551,371.248993 
	C167.062393,382.661438 165.548492,394.806244 162.240997,406.401001 
	C157.707474,422.293610 155.804077,438.576294 154.867813,454.900177 
	C154.149857,467.418152 154.592270,480.117889 155.841751,492.604401 
	C157.406876,508.245148 159.662140,523.886780 162.826904,539.279785 
	C166.828659,558.743713 172.471100,577.858459 180.718567,596.008240 
	C190.941391,618.505188 202.730667,640.168701 216.750412,660.579407 
	C228.384995,677.517578 241.960037,692.821228 256.610474,707.112122 
	C266.261932,716.526672 276.813995,725.017944 287.174072,734.543335 
	C287.736816,734.747192 288.299561,734.951050 289.009216,735.022583 
M384.394318,427.307861 
	C381.239044,439.694366 379.927399,451.924011 382.773804,464.816986 
	C386.805664,483.079590 393.841248,499.354523 407.156403,512.776733 
	C411.879883,517.538208 416.567444,519.249756 423.029114,516.562622 
	C442.258240,508.566040 461.658661,500.981476 480.886993,492.983063 
	C499.345947,485.304626 517.548950,476.995361 536.133972,469.644867 
	C541.766418,467.417206 542.875427,464.312103 543.132324,458.937866 
	C543.789062,445.199799 541.932007,431.827576 536.715271,419.279907 
	C533.564819,411.702179 528.249207,405.024536 523.400391,397.548553 
	C511.703857,384.780762 498.542328,374.870575 480.825684,371.411865 
	C458.669891,367.086487 438.264526,370.250671 419.051208,382.017059 
	C401.821136,392.568909 390.959869,407.845001 384.394318,427.307861 
M445.421906,330.535034 
	C445.421906,330.535034 445.436584,330.466827 446.363525,330.890900 
	C451.695007,330.925751 457.038025,331.204987 462.355927,330.953003 
	C484.790497,329.889954 505.262787,336.270447 524.508972,347.207825 
	C549.777954,361.567841 567.711365,382.643524 578.824402,409.218628 
	C588.751770,432.958496 591.232178,458.021240 587.837830,483.435150 
	C585.428650,501.473663 579.774719,518.761292 569.778564,534.046875 
	C563.414246,543.778870 555.867065,552.907959 547.764893,561.253662 
	C544.230103,564.894714 542.889587,567.896851 542.926086,572.621155 
	C543.100952,595.283936 542.999573,617.948730 543.014709,640.612854 
	C543.015869,642.328918 543.160461,644.044861 543.276428,646.597900 
	C549.610107,642.666443 555.340942,639.482178 560.669250,635.726624 
	C572.984802,627.046082 584.060181,617.051880 594.076477,605.665039 
	C606.567993,591.464233 617.437317,576.186890 625.644653,559.301941 
	C637.345459,535.229736 644.782959,509.743805 645.403320,482.767944 
	C645.665649,471.364075 644.689087,459.916382 643.963196,448.508514 
	C642.748779,429.423004 636.904480,411.534698 629.027954,394.284607 
	C622.030518,378.959839 613.319519,364.750244 602.530151,351.646271 
	C593.734802,340.964050 583.866028,331.594330 573.111877,323.113464 
	C560.944519,313.518158 547.447266,306.164215 533.413452,299.475311 
	C514.254761,290.343719 494.053528,286.077148 473.256378,284.152710 
	C463.838074,283.281219 454.267181,283.829132 444.776031,284.100708 
	C441.481293,284.194977 438.218292,285.397461 434.372986,286.599701 
	C427.897461,287.960602 421.303192,288.914337 414.969208,290.760773 
	C397.735291,295.784698 381.014740,302.179382 365.970428,312.185608 
	C350.242859,322.646179 336.446686,335.290131 324.181854,349.691803 
	C308.948547,367.579132 297.109619,387.412079 289.712921,409.688385 
	C282.049316,432.768738 277.246582,456.418243 279.747803,480.915680 
	C280.965820,492.845459 282.163452,504.922089 285.072784,516.504578 
	C291.296600,541.282593 301.339600,564.621155 316.013397,585.655273 
	C321.606354,593.672363 328.469208,600.803589 334.829529,609.015747 
	C347.777008,624.044983 363.530426,635.371033 380.913330,644.976685 
	C381.501678,643.765686 381.894470,643.333923 381.895355,642.901428 
	C381.947296,617.449097 381.987213,591.996643 381.907715,566.544556 
	C381.904846,565.620850 380.697266,564.700928 379.486420,563.588379 
	C378.731171,562.705017 377.975891,561.821716 377.288330,560.212952 
	C376.498230,559.794983 375.708130,559.377014 374.406860,558.536255 
	C371.241608,554.972900 367.977570,551.491821 364.927490,547.832458 
	C348.053589,527.588074 339.030579,503.891479 336.578308,478.021240 
	C334.795563,459.213928 336.209106,440.286713 342.008606,422.041351 
	C351.752777,391.385925 369.674011,366.736725 396.790100,349.189911 
	C409.972595,340.659485 424.385834,334.856293 440.772247,332.003693 
	C442.319763,331.537262 443.867249,331.070831 445.421906,330.535034 
M789.003113,257.019775 
	C789.003113,257.019775 788.860962,257.155731 788.769104,257.874603 
	C790.572876,260.813293 792.508667,263.679962 794.157654,266.703064 
	C801.533813,280.225952 809.263184,293.579681 816.051331,307.394318 
	C826.568176,328.797272 834.586304,351.199677 840.117676,374.416351 
	C843.037476,386.671661 845.996399,398.972656 847.833801,411.416046 
	C849.874939,425.239075 851.592102,439.236328 851.761780,453.178284 
	C851.991455,472.045441 851.284546,490.988983 849.692505,509.790802 
	C848.605652,522.626831 845.947632,535.430359 842.874023,547.974487 
	C837.972595,567.978516 833.216675,588.131775 826.415955,607.526550 
	C818.777283,629.310974 808.905823,650.285950 797.000793,670.225647 
	C780.207336,698.353088 759.980774,723.848145 737.641052,747.653076 
	C728.362000,757.540649 718.117554,766.573486 707.868347,775.484497 
	C698.319946,783.786194 688.612183,792.035645 678.203796,799.186279 
	C662.515442,809.964294 646.128784,819.723022 630.096741,830.005066 
	C624.127625,833.833252 622.025879,840.797424 625.483276,846.778259 
	C628.175537,851.435608 631.593140,855.720337 635.028259,859.890747 
	C640.269287,866.253479 645.286804,872.943604 651.348633,878.449524 
	C658.393372,884.848206 667.093628,884.106812 674.719543,879.500122 
	C688.193542,871.360474 701.691711,863.106567 714.290771,853.708618 
	C733.091431,839.684631 751.756592,825.344604 769.300232,809.807617 
	C786.888184,794.231445 802.306885,776.425842 816.877441,757.864319 
	C835.099365,734.651245 851.271545,710.171021 865.254883,684.251221 
	C879.020691,658.734619 889.288025,631.699280 897.793274,604.057312 
	C905.697632,578.368042 912.959900,552.475464 915.102539,525.460510 
	C916.103577,512.838867 918.460938,500.283844 918.801025,487.660858 
	C919.252258,470.910034 918.860962,454.090088 917.843689,437.359924 
	C916.927124,422.285339 915.517456,407.138824 912.811707,392.299988 
	C909.204163,372.516144 905.556030,352.533783 899.327881,333.486023 
	C891.613464,309.892883 881.885986,286.881927 871.791382,264.169159 
	C864.751404,248.329391 856.974609,232.637405 845.403259,218.531754 
	C842.027893,213.571442 838.960632,208.364624 835.222900,203.694321 
	C820.561157,185.374329 806.331299,166.649506 790.724670,149.160431 
	C772.661987,128.919189 751.866089,111.484932 730.132812,95.192276 
	C696.852051,70.242867 661.358826,49.158878 622.338196,34.608109 
	C603.871277,27.721804 584.933411,21.874863 565.853638,16.927229 
	C550.944763,13.061189 535.542908,10.925879 520.257996,8.732925 
	C507.143585,6.851370 493.904846,5.170604 480.684998,4.838709 
	C458.242340,4.275268 435.741150,3.899785 413.427521,7.620461 
	C399.785400,9.895212 385.873688,10.928425 372.460663,14.110801 
	C353.969086,18.498112 335.668091,23.881844 317.601624,29.803381 
	C304.450104,34.113979 291.483704,39.309448 279.024078,45.330013 
	C263.381439,52.888626 248.135590,61.338024 233.084961,70.037018 
	C205.495163,85.983391 180.010849,104.960831 156.717255,126.654861 
	C144.504364,138.029083 133.132919,150.395248 122.174240,163.002533 
	C111.427170,175.366409 101.286461,188.312469 91.616089,201.541351 
	C82.234581,214.375061 72.864525,227.379959 65.171616,241.243149 
	C55.995777,257.778717 47.879028,275.005280 40.649509,292.489075 
	C33.161045,310.599091 26.247917,329.087158 20.999767,347.943298 
	C15.936019,366.136932 12.558084,384.900909 9.841546,403.617828 
	C7.190987,421.880096 6.003801,440.379608 4.802162,458.815857 
	C4.279025,466.842133 5.088905,474.988831 5.708728,483.048889 
	C6.862659,498.054321 7.737940,513.117615 9.812897,528.005798 
	C11.976087,543.527161 15.187157,558.917969 18.357006,574.279724 
	C22.706018,595.355957 29.913401,615.563782 37.624062,635.614441 
	C46.538712,658.795898 56.751263,681.401367 69.857712,702.472107 
	C80.702560,719.906860 92.247284,736.989563 104.631302,753.358704 
	C115.534256,767.770142 127.464035,781.519714 139.983124,794.560486 
	C151.943710,807.019714 165.249191,818.187866 178.236877,830.569946 
	C186.873566,837.050110 195.214890,843.978821 204.215485,849.906433 
	C218.056763,859.022034 232.258514,867.603943 246.473511,876.135437 
	C269.812500,890.142944 294.434631,901.648132 320.164948,910.325562 
	C338.586548,916.538208 357.632996,920.971313 376.527832,925.689087 
	C400.564697,931.690735 425.161224,933.976501 449.838684,934.862427 
	C461.918762,935.296143 474.048340,934.295349 486.157043,934.008667 
	C492.989014,933.846863 492.994720,933.906189 492.994812,927.158203 
	C492.995758,827.579956 492.995422,728.001648 492.995422,628.423401 
	C492.995422,600.591492 493.007416,572.759644 492.968567,544.927795 
	C492.965973,543.065857 492.578583,541.204468 492.344452,539.113464 
	C472.545135,546.787537 453.063110,544.527527 432.318604,540.184570 
	C432.318604,649.732239 432.318604,757.987427 432.318604,867.881287 
	C413.769867,864.685425 396.408081,862.855774 379.689392,858.536743 
	C355.614655,852.317322 331.518768,845.560120 309.263702,834.036865 
	C289.864655,823.992432 270.611603,813.626953 251.693390,802.711243 
	C243.580643,798.030151 236.479126,791.596497 228.394577,785.542114 
	C217.677155,775.909668 206.419205,766.804565 196.378433,756.512085 
	C183.683289,743.498352 171.293579,730.058777 160.042145,715.800720 
	C148.969482,701.769165 138.664154,686.972107 129.537933,671.610352 
	C120.701355,656.736206 113.201149,640.977478 106.207001,625.125000 
	C99.224274,609.298401 92.702095,593.151306 87.582268,576.647095 
	C79.605728,550.934082 75.756439,524.263977 73.543526,497.490265 
	C72.406433,483.732697 72.949860,469.789764 73.451477,455.956604 
	C73.926575,442.854797 74.860451,429.727356 76.478821,416.721497 
	C78.000237,404.494934 80.012054,392.244446 83.016510,380.308624 
	C86.875237,364.979065 91.153915,349.660675 96.657890,334.860413 
	C106.590836,308.150543 118.926292,282.503906 134.405945,258.473877 
	C145.311707,241.544205 156.718460,224.958450 170.636490,210.332413 
	C184.429321,195.837936 197.891861,180.911102 212.784134,167.612793 
	C228.934296,153.191238 247.199738,141.418808 265.627380,129.876892 
	C290.565277,114.257378 317.059143,102.096428 344.734344,92.818886 
	C361.857788,87.078621 379.893188,83.797768 397.719635,80.494720 
	C413.079071,77.648766 428.673401,75.490776 444.254181,74.589378 
	C458.602173,73.759308 473.095123,74.598351 487.478058,75.466728 
	C499.518250,76.193642 511.658752,77.192848 523.455811,79.561066 
	C541.321594,83.147545 559.021729,87.679649 576.620056,92.445946 
	C597.917969,98.214241 618.222717,106.888680 637.448975,117.513153 
	C654.379700,126.869095 670.759460,137.425018 686.476135,148.712967 
	C699.898560,158.353119 712.669800,169.126099 724.567139,180.602539 
	C737.645630,193.218323 749.848022,206.829391 761.579102,220.726837 
	C770.718933,231.554581 778.552185,243.485199 787.023682,255.624573 
	C787.632996,256.130951 788.242249,256.637329 789.003113,257.019775 
z"/>
<path fill="#000000" opacity="1.000000" stroke="none" 
	d="
M177.963501,829.923523 
	C165.249191,818.187866 151.943710,807.019714 139.983124,794.560486 
	C127.464035,781.519714 115.534256,767.770142 104.631302,753.358704 
	C92.247284,736.989563 80.702560,719.906860 69.857712,702.472107 
	C56.751263,681.401367 46.538712,658.795898 37.624062,635.614441 
	C29.913401,615.563782 22.706018,595.355957 18.357006,574.279724 
	C15.187157,558.917969 11.976087,543.527161 9.812897,528.005798 
	C7.737940,513.117615 6.862659,498.054321 5.708728,483.048889 
	C5.088905,474.988831 4.279025,466.842133 4.802162,458.815857 
	C6.003801,440.379608 7.190987,421.880096 9.841546,403.617828 
	C12.558084,384.900909 15.936019,366.136932 20.999767,347.943298 
	C26.247917,329.087158 33.161045,310.599091 40.649509,292.489075 
	C47.879028,275.005280 55.995777,257.778717 65.171616,241.243149 
	C72.864525,227.379959 82.234581,214.375061 91.616089,201.541351 
	C101.286461,188.312469 111.427170,175.366409 122.174240,163.002533 
	C133.132919,150.395248 144.504364,138.029083 156.717255,126.654861 
	C180.010849,104.960831 205.495163,85.983391 233.084961,70.037018 
	C248.135590,61.338024 263.381439,52.888626 279.024078,45.330013 
	C291.483704,39.309448 304.450104,34.113979 317.601624,29.803381 
	C335.668091,23.881844 353.969086,18.498112 372.460663,14.110801 
	C385.873688,10.928425 399.785400,9.895212 413.427521,7.620461 
	C435.741150,3.899785 458.242340,4.275268 480.684998,4.838709 
	C493.904846,5.170604 507.143585,6.851370 520.257996,8.732925 
	C535.542908,10.925879 550.944763,13.061189 565.853638,16.927229 
	C584.933411,21.874863 603.871277,27.721804 622.338196,34.608109 
	C661.358826,49.158878 696.852051,70.242867 730.132812,95.192276 
	C751.866089,111.484932 772.661987,128.919189 790.724670,149.160431 
	C806.331299,166.649506 820.561157,185.374329 835.222900,203.694321 
	C838.960632,208.364624 842.027893,213.571442 845.695312,219.133560 
	C845.301453,220.671371 844.810669,221.910248 843.899841,222.497299 
	C832.717041,229.704727 821.493469,236.849655 810.236755,243.941437 
	C803.149475,248.406479 795.988708,252.754944 788.860962,257.155701 
	C788.860962,257.155731 789.003113,257.019775 788.950195,256.763489 
	C788.253540,255.980042 787.609802,255.452850 786.966064,254.925674 
	C778.552185,243.485199 770.718933,231.554581 761.579102,220.726837 
	C749.848022,206.829391 737.645630,193.218323 724.567139,180.602539 
	C712.669800,169.126099 699.898560,158.353119 686.476135,148.712967 
	C670.759460,137.425018 654.379700,126.869095 637.448975,117.513153 
	C618.222717,106.888680 597.917969,98.214241 576.620056,92.445946 
	C559.021729,87.679649 541.321594,83.147545 523.455811,79.561066 
	C511.658752,77.192848 499.518250,76.193642 487.478058,75.466728 
	C473.095123,74.598351 458.602173,73.759308 444.254181,74.589378 
	C428.673401,75.490776 413.079071,77.648766 397.719635,80.494720 
	C379.893188,83.797768 361.857788,87.078621 344.734344,92.818886 
	C317.059143,102.096428 290.565277,114.257378 265.627380,129.876892 
	C247.199738,141.418808 228.934296,153.191238 212.784134,167.612793 
	C197.891861,180.911102 184.429321,195.837936 170.636490,210.332413 
	C156.718460,224.958450 145.311707,241.544205 134.405945,258.473877 
	C118.926292,282.503906 106.590836,308.150543 96.657890,334.860413 
	C91.153915,349.660675 86.875237,364.979065 83.016510,380.308624 
	C80.012054,392.244446 78.000237,404.494934 76.478821,416.721497 
	C74.860451,429.727356 73.926575,442.854797 73.451477,455.956604 
	C72.949860,469.789764 72.406433,483.732697 73.543526,497.490265 
	C75.756439,524.263977 79.605728,550.934082 87.582268,576.647095 
	C92.702095,593.151306 99.224274,609.298401 106.207001,625.125000 
	C113.201149,640.977478 120.701355,656.736206 129.537933,671.610352 
	C138.664154,686.972107 148.969482,701.769165 160.042145,715.800720 
	C171.293579,730.058777 183.683289,743.498352 196.378433,756.512085 
	C206.419205,766.804565 217.677155,775.909668 228.753357,786.062134 
	C229.051620,787.250488 229.255966,788.200867 228.890335,788.544067 
	C224.461456,792.701843 220.075211,796.920654 215.430206,800.829224 
	C206.584869,808.272156 197.650635,815.614502 188.602951,822.809509 
	C185.275208,825.455933 181.522415,827.567810 177.963501,829.923523 
z"/>
<path fill="#67A1BC" opacity="1.000000" stroke="none" 
	d="
M426.940643,157.093781 
	C431.724243,156.397430 436.495575,155.223160 441.293884,155.100052 
	C452.786102,154.805222 464.349091,154.279602 475.775574,155.194916 
	C488.996582,156.253998 502.110596,158.698547 515.255554,160.646118 
	C535.360962,163.624924 554.251038,170.743637 573.075867,177.980988 
	C590.743958,184.773590 607.584412,193.431213 623.199890,204.009720 
	C637.726990,213.850952 651.803589,224.514435 665.158752,235.895248 
	C692.281738,259.008453 713.919495,286.753906 730.030029,318.528168 
	C738.184509,334.611115 745.812256,351.071594 752.127808,367.941772 
	C757.267883,381.671814 760.490173,396.173889 763.866333,410.497803 
	C769.275940,433.448792 770.734131,456.874268 769.894165,480.355804 
	C768.934448,507.183563 765.521423,533.661926 757.870239,559.586182 
	C750.899231,583.205383 740.727051,605.374329 729.365234,627.042786 
	C719.484558,645.886353 706.920105,663.019104 693.159668,679.181458 
	C683.969238,689.976135 674.582336,700.754578 664.150269,710.302246 
	C651.582336,721.804810 638.217712,732.550598 624.436707,742.577820 
	C613.479858,750.550171 601.746460,757.664917 589.691345,763.864502 
	C575.029053,771.404846 559.667725,777.586060 543.729736,784.750427 
	C543.399719,781.897339 543.034607,780.189941 543.030579,778.481628 
	C542.988525,760.815430 543.581116,743.121704 542.744324,725.495056 
	C542.365784,717.521851 546.199341,714.272522 552.122498,711.418335 
	C570.387329,702.617004 587.529785,692.010742 603.277100,679.218750 
	C625.885864,660.853027 644.840881,639.241028 660.746399,614.848572 
	C675.703796,591.910156 686.022522,567.025696 693.037903,540.653625 
	C698.166443,521.374634 701.437744,501.884186 702.115295,481.866058 
	C703.096558,452.873566 700.438049,424.515991 691.493469,396.748505 
	C684.663269,375.544891 676.200867,355.287598 664.133301,336.424042 
	C651.296265,316.357635 636.060730,298.457703 618.723450,282.281738 
	C605.188782,269.653656 590.161316,258.874329 573.703918,250.524033 
	C558.211304,242.663223 542.338623,235.301468 526.027649,229.390945 
	C515.063843,225.418015 503.142212,223.401627 491.475952,222.221527 
	C475.689423,220.624649 459.736908,220.668365 443.542419,219.677963 
	C446.654083,218.501358 446.006226,215.783188 445.971466,213.358261 
	C445.886993,207.464813 445.731140,201.571701 445.718231,195.678177 
	C445.708466,191.216095 445.930267,186.753906 445.951141,182.291290 
	C445.991516,173.650970 445.962921,165.010315 445.962921,156.211929 
	C439.332642,156.519287 433.136658,156.806534 426.940643,157.093781 
z"/>
<path fill="#67A1BC" opacity="1.000000" stroke="none" 
	d="
M788.815063,257.515137 
	C795.988708,252.754944 803.149475,248.406479 810.236755,243.941437 
	C821.493469,236.849655 832.717041,229.704727 843.899841,222.497299 
	C844.810669,221.910248 845.301453,220.671371 845.955444,219.349457 
	C856.974609,232.637405 864.751404,248.329391 871.791382,264.169159 
	C881.885986,286.881927 891.613464,309.892883 899.327881,333.486023 
	C905.556030,352.533783 909.204163,372.516144 912.811707,392.299988 
	C915.517456,407.138824 916.927124,422.285339 917.843689,437.359924 
	C918.860962,454.090088 919.252258,470.910034 918.801025,487.660858 
	C918.460938,500.283844 916.103577,512.838867 915.102539,525.460510 
	C912.959900,552.475464 905.697632,578.368042 897.793274,604.057312 
	C889.288025,631.699280 879.020691,658.734619 865.254883,684.251221 
	C851.271545,710.171021 835.099365,734.651245 816.877441,757.864319 
	C802.306885,776.425842 786.888184,794.231445 769.300232,809.807617 
	C751.756592,825.344604 733.091431,839.684631 714.290771,853.708618 
	C701.691711,863.106567 688.193542,871.360474 674.719543,879.500122 
	C667.093628,884.106812 658.393372,884.848206 651.348633,878.449524 
	C645.286804,872.943604 640.269287,866.253479 635.028259,859.890747 
	C631.593140,855.720337 628.175537,851.435608 625.483276,846.778259 
	C622.025879,840.797424 624.127625,833.833252 630.096741,830.005066 
	C646.128784,819.723022 662.515442,809.964294 678.203796,799.186279 
	C688.612183,792.035645 698.319946,783.786194 707.868347,775.484497 
	C718.117554,766.573486 728.362000,757.540649 737.641052,747.653076 
	C759.980774,723.848145 780.207336,698.353088 797.000793,670.225647 
	C808.905823,650.285950 818.777283,629.310974 826.415955,607.526550 
	C833.216675,588.131775 837.972595,567.978516 842.874023,547.974487 
	C845.947632,535.430359 848.605652,522.626831 849.692505,509.790802 
	C851.284546,490.988983 851.991455,472.045441 851.761780,453.178284 
	C851.592102,439.236328 849.874939,425.239075 847.833801,411.416046 
	C845.996399,398.972656 843.037476,386.671661 840.117676,374.416351 
	C834.586304,351.199677 826.568176,328.797272 816.051331,307.394318 
	C809.263184,293.579681 801.533813,280.225952 794.157654,266.703064 
	C792.508667,263.679962 790.572876,260.813293 788.815063,257.515137 
z"/>
<path fill="#000000" opacity="1.000000" stroke="none" 
	d="
M426.638733,157.347107 
	C433.136658,156.806534 439.332642,156.519287 445.962921,156.211929 
	C445.962921,165.010315 445.991516,173.650970 445.951141,182.291290 
	C445.930267,186.753906 445.708466,191.216095 445.718231,195.678177 
	C445.731140,201.571701 445.886993,207.464813 445.971466,213.358261 
	C446.006226,215.783188 446.654083,218.501358 443.068451,219.700043 
	C421.502075,221.522736 400.870514,226.438477 380.972168,234.347778 
	C357.968018,243.491592 336.704132,255.726364 317.520142,271.405457 
	C298.132050,287.251373 280.369293,304.702667 266.391571,325.643585 
	C252.670425,346.200104 240.828720,367.821228 233.830597,391.602081 
	C229.734482,405.521423 227.295883,419.941467 224.372528,434.189789 
	C220.632980,452.416260 221.530457,470.993500 222.660995,489.251709 
	C224.533463,519.491272 231.549957,548.818054 243.689560,576.794434 
	C254.421158,601.526062 269.162720,623.637573 286.195099,644.410828 
	C300.937256,662.390869 317.704590,678.111572 336.544922,691.673706 
	C337.463379,692.334839 338.438507,692.917175 339.595520,694.093262 
	C338.863281,695.280640 337.838531,695.814880 336.994781,696.555359 
	C323.020264,708.819824 309.037354,721.075195 295.147156,733.434692 
	C293.204529,735.163330 291.585022,736.869995 288.853821,735.142700 
	C288.853821,735.142700 289.009216,735.022583 288.930603,734.750610 
	C288.222260,734.293335 287.592529,734.108032 286.962769,733.922668 
	C276.813995,725.017944 266.261932,716.526672 256.610474,707.112122 
	C241.960037,692.821228 228.384995,677.517578 216.750412,660.579407 
	C202.730667,640.168701 190.941391,618.505188 180.718567,596.008240 
	C172.471100,577.858459 166.828659,558.743713 162.826904,539.279785 
	C159.662140,523.886780 157.406876,508.245148 155.841751,492.604401 
	C154.592270,480.117889 154.149857,467.418152 154.867813,454.900177 
	C155.804077,438.576294 157.707474,422.293610 162.240997,406.401001 
	C165.548492,394.806244 167.062393,382.661438 170.845551,371.248993 
	C178.130951,349.271423 187.527542,328.215363 199.464783,308.194397 
	C209.300781,291.697571 220.764542,276.766968 233.301422,262.242920 
	C258.307861,233.272736 287.791290,210.344070 320.899933,191.570999 
	C340.989990,180.179642 362.072937,171.163361 384.274109,165.219650 
	C397.991760,161.547165 412.295959,160.065598 426.638733,157.347107 
z"/>
<path fill="#67A1BC" opacity="1.000000" stroke="none" 
	d="
M178.100189,830.246704 
	C181.522415,827.567810 185.275208,825.455933 188.602951,822.809509 
	C197.650635,815.614502 206.584869,808.272156 215.430206,800.829224 
	C220.075211,796.920654 224.461456,792.701843 228.890335,788.544067 
	C229.255966,788.200867 229.051620,787.250488 229.015137,786.270630 
	C236.479126,791.596497 243.580643,798.030151 251.693390,802.711243 
	C270.611603,813.626953 289.864655,823.992432 309.263702,834.036865 
	C331.518768,845.560120 355.614655,852.317322 379.689392,858.536743 
	C396.408081,862.855774 413.769867,864.685425 432.318604,867.881287 
	C432.318604,757.987427 432.318604,649.732239 432.318604,540.184570 
	C453.063110,544.527527 472.545135,546.787537 492.344452,539.113464 
	C492.578583,541.204468 492.965973,543.065857 492.968567,544.927795 
	C493.007416,572.759644 492.995422,600.591492 492.995422,628.423401 
	C492.995422,728.001648 492.995758,827.579956 492.994812,927.158203 
	C492.994720,933.906189 492.989014,933.846863 486.157043,934.008667 
	C474.048340,934.295349 461.918762,935.296143 449.838684,934.862427 
	C425.161224,933.976501 400.564697,931.690735 376.527832,925.689087 
	C357.632996,920.971313 338.586548,916.538208 320.164948,910.325562 
	C294.434631,901.648132 269.812500,890.142944 246.473511,876.135437 
	C232.258514,867.603943 218.056763,859.022034 204.215485,849.906433 
	C195.214890,843.978821 186.873566,837.050110 178.100189,830.246704 
z"/>
<path fill="#67A1BC" opacity="1.000000" stroke="none" 
	d="
M434.940796,286.093811 
	C438.218292,285.397461 441.481293,284.194977 444.776031,284.100708 
	C454.267181,283.829132 463.838074,283.281219 473.256378,284.152710 
	C494.053528,286.077148 514.254761,290.343719 533.413452,299.475311 
	C547.447266,306.164215 560.944519,313.518158 573.111877,323.113464 
	C583.866028,331.594330 593.734802,340.964050 602.530151,351.646271 
	C613.319519,364.750244 622.030518,378.959839 629.027954,394.284607 
	C636.904480,411.534698 642.748779,429.423004 643.963196,448.508514 
	C644.689087,459.916382 645.665649,471.364075 645.403320,482.767944 
	C644.782959,509.743805 637.345459,535.229736 625.644653,559.301941 
	C617.437317,576.186890 606.567993,591.464233 594.076477,605.665039 
	C584.060181,617.051880 572.984802,627.046082 560.669250,635.726624 
	C555.340942,639.482178 549.610107,642.666443 543.276428,646.597900 
	C543.160461,644.044861 543.015869,642.328918 543.014709,640.612854 
	C542.999573,617.948730 543.100952,595.283936 542.926086,572.621155 
	C542.889587,567.896851 544.230103,564.894714 547.764893,561.253662 
	C555.867065,552.907959 563.414246,543.778870 569.778564,534.046875 
	C579.774719,518.761292 585.428650,501.473663 587.837830,483.435150 
	C591.232178,458.021240 588.751770,432.958496 578.824402,409.218628 
	C567.711365,382.643524 549.777954,361.567841 524.508972,347.207825 
	C505.262787,336.270447 484.790497,329.889954 462.355927,330.953003 
	C457.038025,331.204987 451.695007,330.925751 446.071716,330.329712 
	C445.779938,314.969757 445.779938,300.170990 445.779938,285.167267 
	C441.998779,285.490479 438.469788,285.792175 434.940796,286.093811 
z"/>
<path fill="#000000" opacity="1.000000" stroke="none" 
	d="
M434.656891,286.346771 
	C438.469788,285.792175 441.998779,285.490479 445.779938,285.167267 
	C445.779938,300.170990 445.779938,314.969757 445.608276,330.117676 
	C445.436584,330.466827 445.421906,330.535034 445.064819,330.685730 
	C443.110077,331.238708 441.512421,331.640991 439.914734,332.043274 
	C424.385834,334.856293 409.972595,340.659485 396.790100,349.189911 
	C369.674011,366.736725 351.752777,391.385925 342.008606,422.041351 
	C336.209106,440.286713 334.795563,459.213928 336.578308,478.021240 
	C339.030579,503.891479 348.053589,527.588074 364.927490,547.832458 
	C367.977570,551.491821 371.241608,554.972900 374.765015,559.061035 
	C375.822296,560.036682 376.521454,560.487549 377.220612,560.938416 
	C377.975891,561.821716 378.731171,562.705017 379.844604,564.113525 
	C380.952698,568.841797 383.185120,573.765503 379.024353,576.828430 
	C368.978485,584.223633 358.394592,590.883240 348.152771,598.018982 
	C343.532440,601.238098 339.210571,604.885437 334.753296,608.338501 
	C328.469208,600.803589 321.606354,593.672363 316.013397,585.655273 
	C301.339600,564.621155 291.296600,541.282593 285.072784,516.504578 
	C282.163452,504.922089 280.965820,492.845459 279.747803,480.915680 
	C277.246582,456.418243 282.049316,432.768738 289.712921,409.688385 
	C297.109619,387.412079 308.948547,367.579132 324.181854,349.691803 
	C336.446686,335.290131 350.242859,322.646179 365.970428,312.185608 
	C381.014740,302.179382 397.735291,295.784698 414.969208,290.760773 
	C421.303192,288.914337 427.897461,287.960602 434.656891,286.346771 
z"/>
<path fill="#67A1BC" opacity="1.000000" stroke="none" 
	d="
M523.906494,397.942474 
	C528.249207,405.024536 533.564819,411.702179 536.715271,419.279907 
	C541.932007,431.827576 543.789062,445.199799 543.132324,458.937866 
	C542.875427,464.312103 541.766418,467.417206 536.133972,469.644867 
	C517.548950,476.995361 499.345947,485.304626 480.886993,492.983063 
	C461.658661,500.981476 442.258240,508.566040 423.029114,516.562622 
	C416.567444,519.249756 411.879883,517.538208 407.156403,512.776733 
	C393.841248,499.354523 386.805664,483.079590 382.773804,464.816986 
	C379.927399,451.924011 381.239044,439.694366 384.703674,427.557617 
	C384.810181,429.261078 384.588501,430.712433 384.407532,432.168854 
	C383.360504,440.595581 382.323090,449.023468 381.186829,458.224884 
	C383.645599,457.835754 384.945770,457.850006 386.071808,457.414246 
	C391.373474,455.362610 396.611420,453.147095 401.901154,451.063873 
	C420.640045,443.683990 439.404907,436.369843 458.133301,428.963562 
	C479.118622,420.664825 500.059692,412.254059 521.060730,403.995605 
	C524.173523,402.771484 525.667725,401.239197 523.906494,397.942474 
z"/>
<path fill="#000000" opacity="1.000000" stroke="none" 
	d="
M523.653442,397.745514 
	C525.667725,401.239197 524.173523,402.771484 521.060730,403.995605 
	C500.059692,412.254059 479.118622,420.664825 458.133301,428.963562 
	C439.404907,436.369843 420.640045,443.683990 401.901154,451.063873 
	C396.611420,453.147095 391.373474,455.362610 386.071808,457.414246 
	C384.945770,457.850006 383.645599,457.835754 381.186829,458.224884 
	C382.323090,449.023468 383.360504,440.595581 384.407532,432.168854 
	C384.588501,430.712433 384.810181,429.261078 385.053406,427.374390 
	C390.959869,407.845001 401.821136,392.568909 419.051208,382.017059 
	C438.264526,370.250671 458.669891,367.086487 480.825684,371.411865 
	C498.542328,374.870575 511.703857,384.780762 523.653442,397.745514 
z"/>
<path fill="#67A1BC" opacity="1.000000" stroke="none" 
	d="
M288.825989,735.511169 
	C291.585022,736.869995 293.204529,735.163330 295.147156,733.434692 
	C309.037354,721.075195 323.020264,708.819824 336.994781,696.555359 
	C337.838531,695.814880 338.863281,695.280640 339.865906,694.308411 
	C344.294647,696.502625 348.615356,699.122253 353.037964,701.556824 
	C361.049255,705.966858 369.022186,710.467102 377.215729,714.515503 
	C380.580353,716.178101 382.164856,717.856445 382.107422,721.906372 
	C381.850098,740.046387 382.007507,758.192078 381.975861,776.335693 
	C381.972839,778.062988 381.696289,779.789673 381.495667,782.106262 
	C377.257965,780.797241 373.630341,779.986694 370.251587,778.578918 
	C356.350891,772.787170 342.156708,767.534973 328.784607,760.689453 
	C317.153351,754.735168 306.485657,746.899841 295.384430,739.908081 
	C293.207031,738.536682 290.994507,737.221008 288.825989,735.511169 
z"/>
<path fill="#67A1BC" opacity="1.000000" stroke="none" 
	d="
M334.791382,608.677124 
	C339.210571,604.885437 343.532440,601.238098 348.152771,598.018982 
	C358.394592,590.883240 368.978485,584.223633 379.024353,576.828430 
	C383.185120,573.765503 380.952698,568.841797 380.126953,564.208984 
	C380.697266,564.700928 381.904846,565.620850 381.907715,566.544556 
	C381.987213,591.996643 381.947296,617.449097 381.895355,642.901428 
	C381.894470,643.333923 381.501678,643.765686 380.913330,644.976685 
	C363.530426,635.371033 347.777008,624.044983 334.791382,608.677124 
z"/>
<path fill="#67A1BC" opacity="1.000000" stroke="none" 
	d="
M440.343506,332.023499 
	C441.512421,331.640991 443.110077,331.238708 445.061279,330.720398 
	C443.867249,331.070831 442.319763,331.537262 440.343506,332.023499 
z"/>
<path fill="#67A1BC" opacity="1.000000" stroke="none" 
	d="
M786.994873,255.275116 
	C787.609802,255.452850 788.253540,255.980042 788.874390,256.825470 
	C788.242249,256.637329 787.632996,256.130951 786.994873,255.275116 
z"/>
<path fill="#67A1BC" opacity="1.000000" stroke="none" 
	d="
M377.254456,560.575684 
	C376.521454,560.487549 375.822296,560.036682 375.020569,559.272461 
	C375.708130,559.377014 376.498230,559.794983 377.254456,560.575684 
z"/>
<path fill="#67A1BC" opacity="1.000000" stroke="none" 
	d="
M287.068420,734.233032 
	C287.592529,734.108032 288.222260,734.293335 288.857178,734.816772 
	C288.299561,734.951050 287.736816,734.747192 287.068420,734.233032 
z"/>
</svg>