<svg version="1.1" id="Layer_1" xmlns="http://www.w3.org/2000/svg" xmlns:xlink="http://www.w3.org/1999/xlink" x="0px" y="0px"
	 width="100%" viewBox="0 0 1976 528" enable-background="new 0 0 1976 528" xml:space="preserve">
<path fill="#FEFEFE" opacity="1.000000" stroke="none" 
	d="
M1277.000000,529.000000 
	C851.333313,529.000000 426.166656,529.000000 1.000000,529.000000 
	C1.000000,353.000000 1.000000,177.000000 1.000000,1.000000 
	C659.666687,1.000000 1318.333374,1.000000 1977.000000,1.000000 
	C1977.000000,177.000000 1977.000000,353.000000 1977.000000,529.000000 
	C1743.833374,529.000000 1510.666626,529.000000 1277.000000,529.000000 
M212.888290,249.110153 
	C212.878296,250.274139 212.868301,251.438126 212.401947,253.273758 
	C212.953766,254.985275 213.772919,256.660339 214.012009,258.414490 
	C215.158264,266.824646 218.941406,274.085968 223.735977,280.863007 
	C227.905350,286.756317 231.580704,288.032379 237.756088,285.509399 
	C257.746185,277.342255 277.684937,269.047974 297.578705,260.649170 
	C299.023621,260.039124 300.846191,258.282623 300.975464,256.915619 
	C302.160431,244.382294 299.442566,232.828598 291.144043,222.182846 
	C286.381897,218.164490 282.183136,213.011642 276.762268,210.319809 
	C250.178101,197.118851 216.126099,213.885651 212.782959,245.954193 
	C212.815506,246.775040 212.848038,247.595886 212.888290,249.110153 
M212.088867,312.227936 
	C190.618149,291.959625 183.502472,266.974976 190.429581,238.811050 
	C197.622604,209.565948 216.633072,191.280807 247.282486,185.530060 
	C263.184784,183.452164 278.125793,185.716110 292.088440,194.236893 
	C321.405182,212.127594 329.827728,241.303406 325.442749,271.047577 
	C323.208069,286.205750 315.871643,299.466980 304.773560,310.454895 
	C303.151703,312.060638 302.084381,314.957703 302.026947,317.288452 
	C301.748047,328.607269 301.887878,339.936707 301.914948,351.262329 
	C301.918640,352.807648 302.122131,354.352509 302.294800,356.756622 
	C304.766815,355.313446 306.486420,354.403229 308.110809,353.346619 
	C324.470490,342.705383 336.649231,328.412598 345.554779,311.098877 
	C356.874329,289.091888 360.423431,265.932617 355.577240,241.766769 
	C350.205719,214.981140 336.013275,193.482697 313.826843,177.645935 
	C294.106537,163.569473 271.947510,157.335052 246.904068,159.493713 
	C235.966415,162.722931 224.390457,164.609833 214.217621,169.447357 
	C189.349716,181.272842 172.608582,201.110367 162.937149,226.866638 
	C158.503693,238.673523 156.331314,251.037949 156.767670,263.525055 
	C157.432816,282.559387 162.799484,300.560730 172.654495,316.884979 
	C176.876328,323.878174 182.621521,329.951721 187.792740,337.117859 
	C194.779312,342.846313 201.618622,348.769165 208.815140,354.220398 
	C212.366989,356.910889 213.591110,356.046295 213.633911,351.554260 
	C213.746399,339.748322 213.814041,327.941559 213.780212,316.135437 
	C213.777023,315.021698 212.931046,313.910370 212.088867,312.227936 
M244.896286,88.552132 
	C244.635666,88.737953 244.375061,88.923767 243.285690,89.334358 
	C240.171219,89.565857 237.056747,89.797348 233.769531,89.532021 
	C233.107269,89.843483 232.445007,90.154953 230.952072,90.694603 
	C221.493073,93.109871 211.759674,94.767838 202.624939,98.077972 
	C171.319656,109.421989 145.760727,128.999268 125.071533,154.864594 
	C109.845100,173.900452 100.019493,195.653595 94.080414,219.295792 
	C87.652794,244.882721 86.735374,270.523621 92.368446,296.300995 
	C97.920700,321.708496 108.458061,345.008423 123.504539,366.152893 
	C134.707306,381.895905 148.041290,395.684631 164.285004,407.434753 
	C177.036957,417.476807 191.683594,423.914276 206.689117,429.643250 
	C212.042938,431.687286 213.635788,430.974609 213.635941,426.781006 
	C213.636230,418.175812 213.749680,409.562164 213.375259,400.971252 
	C213.280441,398.795654 212.105560,395.764832 210.431931,394.718262 
	C203.596008,390.443848 196.374573,386.785919 188.765625,382.520508 
	C187.876678,381.900482 186.987732,381.280426 186.118942,380.166473 
	C185.903046,379.821442 185.614624,379.742920 184.716492,379.506226 
	C169.001541,367.906403 156.207886,353.341705 146.494354,336.732971 
	C125.040169,300.049377 119.407722,260.706055 131.771729,219.684586 
	C143.059509,182.233810 167.202682,155.086700 201.515839,136.854630 
	C215.915833,129.203293 231.571182,125.519615 248.631393,123.920036 
	C267.427856,123.104507 285.670898,125.634071 303.050659,133.121918 
	C316.216644,138.794327 328.800446,145.700272 339.539124,155.161240 
	C360.696320,173.801086 375.971039,196.271790 383.794220,223.839417 
	C387.625732,237.341187 388.493530,250.950089 388.619141,264.618042 
	C388.739044,277.669708 386.189575,290.495575 382.478943,303.180298 
	C376.854187,322.408478 367.833038,339.624054 355.041229,354.900177 
	C341.681335,370.854828 325.957153,383.902527 306.947479,392.683075 
	C302.970642,394.519928 301.562683,397.149384 301.781738,401.620239 
	C302.197113,410.098663 301.882721,418.612030 301.915955,427.110718 
	C301.922058,428.665894 302.139160,430.220276 302.294464,432.237152 
	C304.427551,431.392151 305.910614,430.757965 307.426788,430.216553 
	C309.144806,429.603027 310.952911,429.211273 312.618317,428.485504 
	C341.720001,415.803558 366.363007,397.339050 386.063690,372.301880 
	C398.460968,356.546417 408.443939,339.472778 415.195099,320.609589 
	C419.887878,307.497498 422.774536,294.044952 424.455505,280.080109 
	C426.369293,264.181458 426.097382,248.440994 423.264160,233.040848 
	C420.842133,219.875443 415.867096,207.090485 411.176727,194.450653 
	C402.070496,169.910660 386.960693,149.514816 367.330780,132.189911 
	C338.166779,106.450462 304.337769,91.998932 265.650391,88.920868 
	C259.480530,88.429977 253.232239,88.924667 246.342590,88.964813 
	C245.891083,88.964180 245.439575,88.963547 244.896286,88.552132 
M435.879974,144.933350 
	C445.170410,158.651398 452.197937,173.428650 458.022247,188.963776 
	C463.984314,204.866302 468.206390,221.286850 469.512756,237.929703 
	C470.829132,254.700668 469.393097,271.781555 468.061676,288.639679 
	C466.768188,305.017517 462.274597,320.877808 456.627502,336.292297 
	C448.780121,357.712921 437.644531,377.337311 423.334351,395.153259 
	C411.460785,409.935730 398.758636,423.925629 383.309296,435.036316 
	C372.836945,442.567627 361.887817,449.442139 351.068970,456.483002 
	C344.846008,460.532928 344.005249,464.625061 348.791626,470.462311 
	C352.580902,475.083588 356.443787,479.664429 360.561218,483.989838 
	C363.413971,486.986694 367.054504,488.205231 370.906982,485.671234 
	C384.122375,476.978851 397.751129,468.821533 410.339844,459.294159 
	C425.016144,448.186890 437.731110,434.884857 449.377319,420.514526 
	C460.796478,406.424347 470.678314,391.402679 479.005096,375.366608 
	C486.971375,360.024811 492.260803,343.665436 497.403198,327.159637 
	C503.946991,306.155853 506.423004,284.748779 506.977325,262.988434 
	C507.162750,255.709351 506.190338,248.407639 506.167023,241.114944 
	C506.113373,224.352188 502.492310,208.164658 498.105682,192.180145 
	C492.660828,172.339600 484.726379,153.419266 474.671844,135.450424 
	C472.722687,131.967010 469.902649,128.970932 467.422119,125.101555 
	C467.109985,124.342995 466.907196,123.513870 466.469788,122.836174 
	C454.637543,104.504913 440.931732,87.623428 424.740814,73.065857 
	C402.603394,53.161621 378.283661,36.399990 350.540558,24.933146 
	C324.174438,14.035429 296.797607,7.472938 268.360687,6.295046 
	C233.565399,4.853782 199.870850,10.523351 167.514389,23.892679 
	C140.477936,35.063835 115.974213,50.239326 93.935333,69.347946 
	C77.607224,83.505089 63.871147,100.000435 51.350037,117.622307 
	C33.831165,142.277878 21.754059,169.515579 14.215614,198.500992 
	C6.219656,229.245575 4.467969,260.660248 9.125896,292.333069 
	C13.368955,321.184814 21.827991,348.673126 34.978584,374.627106 
	C48.600880,401.512085 66.277138,425.521454 88.418518,446.068970 
	C93.189369,450.496399 98.654587,454.175598 103.726082,458.907013 
	C108.561577,462.611053 113.278351,466.483398 118.251877,469.991760 
	C150.195831,492.525238 185.392151,507.104736 224.150497,512.720581 
	C232.187256,513.885010 240.311478,514.740967 248.420624,515.029175 
	C256.789124,515.326660 265.188385,514.758301 273.684967,514.566284 
	C273.684967,442.147430 273.684967,370.916779 273.684967,299.248383 
	C272.048920,299.540680 270.794189,299.908417 269.525055,299.967834 
	C262.429504,300.300018 255.283951,301.182709 248.246201,300.658722 
	C241.675995,300.169525 241.726227,299.500000 241.721237,306.184692 
	C241.697510,337.940002 241.744354,369.695618 241.612030,401.450470 
	C241.564545,412.846191 240.967300,424.238708 240.834610,435.635193 
	C240.693039,447.795990 240.833130,459.959839 240.791977,472.122162 
	C240.772446,477.894501 239.767807,478.935120 234.421432,477.853577 
	C224.042999,475.753998 213.605576,473.797119 203.401321,471.015442 
	C179.231537,464.426727 156.882919,453.855072 136.534897,439.139526 
	C134.608170,437.746094 132.282516,436.904327 129.996979,435.182129 
	C129.232285,434.181335 128.467606,433.180542 127.671402,431.640045 
	C127.358429,431.567474 127.045456,431.494904 126.183464,431.023773 
	C122.453468,427.726471 118.581528,424.575134 115.016869,421.107849 
	C94.069214,400.732605 76.825859,377.777374 64.300369,351.158142 
	C48.423866,317.417328 41.983917,281.977875 44.290020,245.065598 
	C45.501183,225.679398 49.951885,206.728745 56.648453,188.316025 
	C65.986801,162.639542 79.521141,139.509781 97.196671,118.787720 
	C112.242760,101.148308 129.950546,86.724670 149.761871,74.580986 
	C181.754898,54.970352 216.501953,45.385586 253.753204,44.383812 
	C274.329529,43.830463 294.434937,47.138432 314.268738,52.640804 
	C347.405762,61.833813 376.393402,78.445702 400.593811,102.580727 
	C413.428680,115.380898 424.168640,130.281677 435.879974,144.933350 
M1321.715454,259.217316 
	C1329.902100,251.935242 1336.499390,243.439621 1340.941406,233.399643 
	C1350.468140,211.867157 1351.987305,189.338257 1348.387939,166.400681 
	C1344.696289,142.874603 1332.853149,124.262230 1313.179443,110.707275 
	C1291.165039,95.539696 1266.183716,89.639656 1240.083130,89.215096 
	C1194.934814,88.480698 1149.768188,88.872589 1104.609253,88.799217 
	C1103.829834,88.797951 1103.050171,88.887276 1102.295044,88.932861 
	C1102.295044,196.156113 1102.295044,303.014496 1102.295044,409.609619 
	C1128.371582,409.609619 1154.098022,409.609619 1180.231201,409.609619 
	C1180.231201,371.818146 1180.231201,334.416168 1180.231201,296.920319 
	C1192.471069,296.920319 1204.301636,297.078735 1216.123535,296.826233 
	C1219.789917,296.747894 1221.598022,297.856171 1223.256104,301.202850 
	C1240.641357,336.293121 1258.277100,371.259247 1275.688354,406.336731 
	C1277.078125,409.136536 1278.534302,410.092255 1281.633911,410.075775 
	C1306.962769,409.940857 1332.292603,410.003326 1357.622192,409.987640 
	C1358.726929,409.986969 1359.831665,409.809753 1362.634277,409.568817 
	C1340.189087,364.843842 1316.995239,321.477722 1295.000244,278.254517 
	C1303.917603,271.938568 1312.557861,265.818939 1321.715454,259.217316 
M1664.683350,323.500214 
	C1664.683350,245.400421 1664.683350,167.300629 1664.683350,89.035446 
	C1638.563477,89.035446 1612.988525,89.035446 1586.885742,89.035446 
	C1586.885742,131.479019 1586.885742,173.681946 1586.885742,215.719299 
	C1548.945801,215.719299 1511.534668,215.719299 1473.765869,215.719299 
	C1473.765869,173.340012 1473.765869,131.256073 1473.765869,89.076538 
	C1447.683105,89.076538 1421.961426,89.076538 1396.135254,89.076538 
	C1396.135254,196.097824 1396.135254,302.834045 1396.135254,409.770630 
	C1422.053467,409.770630 1447.781860,409.770630 1474.000977,409.770630 
	C1474.000977,365.162872 1474.000977,320.781525 1474.000977,276.344666 
	C1511.890747,276.344666 1549.288940,276.344666 1587.153564,276.344666 
	C1587.153564,320.989990 1587.153564,365.377991 1587.153564,409.695526 
	C1613.189331,409.695526 1638.756592,409.695526 1664.683350,409.695526 
	C1664.683350,381.095062 1664.683350,352.797668 1664.683350,323.500214 
M727.666138,252.849686 
	C723.958862,246.738022 720.399353,240.529282 716.477051,234.558884 
	C714.723999,231.890442 714.860413,230.118942 716.814758,227.572998 
	C744.996277,190.860229 773.061340,154.058044 801.151978,117.275490 
	C808.177002,108.076752 815.193604,98.871643 822.653687,89.093292 
	C821.267395,88.933670 820.674255,88.805840 820.081116,88.805618 
	C789.752563,88.794350 759.423645,88.744522 729.096191,88.923241 
	C727.395508,88.933258 725.113098,90.431503 724.097473,91.917694 
	C694.062073,135.868103 664.152954,179.904846 634.223511,223.927628 
	C633.364807,225.190750 632.502075,226.451187 630.821167,228.914673 
	C630.821167,181.316360 630.821167,135.252716 630.821167,89.071426 
	C604.695312,89.071426 578.972778,89.071426 553.138367,89.071426 
	C553.138367,196.092178 553.138367,302.833618 553.138367,409.765381 
	C579.060364,409.765381 604.789856,409.765381 630.925415,409.765381 
	C630.925415,407.913177 630.925415,406.288910 630.925415,404.664642 
	C630.925415,379.835205 630.995117,355.005341 630.844727,330.176819 
	C630.823975,326.745178 631.800232,324.281586 634.111877,321.810974 
	C642.534973,312.808777 650.750427,303.612457 659.066711,294.509918 
	C660.022522,293.463745 661.119812,292.546814 662.306763,291.422974 
	C684.349854,329.962311 706.164124,368.024628 727.843567,406.163544 
	C729.427368,408.949799 730.977539,410.115570 734.338684,410.095337 
	C762.333313,409.926819 790.329346,410.003143 818.324951,409.988251 
	C819.540649,409.987610 820.756287,409.818695 822.624329,409.679596 
	C790.841553,357.217499 759.423340,305.357147 727.666138,252.849686 
M1864.071411,396.492798 
	C1864.071411,364.332581 1864.008667,332.172058 1864.169800,300.012604 
	C1864.185547,296.846466 1864.995972,293.397339 1866.412354,290.567383 
	C1899.034180,225.386627 1931.792358,160.274231 1964.516235,95.144562 
	C1965.459717,93.266899 1966.305542,91.340149 1967.498535,88.791946 
	C1965.211914,88.791946 1963.604370,88.791954 1961.996948,88.791954 
	C1937.334961,88.791946 1912.671997,88.898628 1888.011963,88.680923 
	C1884.158447,88.646896 1882.572021,90.014771 1881.173218,93.338776 
	C1863.210815,136.026596 1845.116821,178.659042 1827.048462,221.302231 
	C1826.327393,223.003815 1825.527222,224.671783 1824.505737,226.924774 
	C1805.360229,181.888901 1786.497070,137.621246 1767.783325,93.290489 
	C1766.355713,89.908501 1764.723511,88.651016 1760.906250,88.683731 
	C1736.246094,88.895088 1711.583374,88.786659 1686.921387,88.804482 
	C1685.371460,88.805603 1683.821533,88.987129 1681.932739,89.106064 
	C1682.891846,91.123482 1683.568970,92.618042 1684.303955,94.083542 
	C1716.992065,159.263504 1749.721558,224.422760 1782.274170,289.670349 
	C1783.964111,293.057709 1784.897217,297.191315 1784.919067,300.984772 
	C1785.117920,335.477020 1785.035645,369.970947 1785.035645,404.464355 
	C1785.035645,406.229218 1785.035645,407.994049 1785.035645,409.711456 
	C1811.703491,409.711456 1837.774902,409.711456 1864.071411,409.711456 
	C1864.071411,405.447937 1864.071411,401.469025 1864.071411,396.492798 
M905.313782,311.812408 
	C890.498779,344.398651 875.683777,376.984894 860.673645,410.000427 
	C886.710022,410.000427 912.030090,410.072388 937.346924,409.821045 
	C938.860046,409.806030 941.014404,407.489685 941.751404,405.765808 
	C980.693604,314.671692 1019.516052,223.526398 1058.339722,132.381638 
	C1058.920410,131.018219 1059.787476,129.598587 1059.799683,128.198898 
	C1059.912354,115.243301 1059.866211,102.286316 1059.866211,89.083466 
	C982.453369,89.083466 905.426636,89.083466 828.428345,89.083466 
	C828.428345,108.420029 828.428345,127.461586 828.428345,146.989700 
	C879.148560,146.989700 929.500793,146.989700 980.421753,146.989700 
	C955.329346,202.131088 930.520386,256.649567 905.313782,311.812408 
z"/>
<path fill="#010101" opacity="1.000000" stroke="none" 
	d="
M1321.456787,259.458313 
	C1312.557861,265.818939 1303.917603,271.938568 1295.000244,278.254517 
	C1316.995239,321.477722 1340.189087,364.843842 1362.634277,409.568817 
	C1359.831665,409.809753 1358.726929,409.986969 1357.622192,409.987640 
	C1332.292603,410.003326 1306.962769,409.940857 1281.633911,410.075775 
	C1278.534302,410.092255 1277.078125,409.136536 1275.688354,406.336731 
	C1258.277100,371.259247 1240.641357,336.293121 1223.256104,301.202850 
	C1221.598022,297.856171 1219.789917,296.747894 1216.123535,296.826233 
	C1204.301636,297.078735 1192.471069,296.920319 1180.231201,296.920319 
	C1180.231201,334.416168 1180.231201,371.818146 1180.231201,409.609619 
	C1154.098022,409.609619 1128.371582,409.609619 1102.295044,409.609619 
	C1102.295044,303.014496 1102.295044,196.156113 1102.295044,88.932861 
	C1103.050171,88.887276 1103.829834,88.797951 1104.609253,88.799217 
	C1149.768188,88.872589 1194.934814,88.480698 1240.083130,89.215096 
	C1266.183716,89.639656 1291.165039,95.539696 1313.179443,110.707275 
	C1332.853149,124.262230 1344.696289,142.874603 1348.387939,166.400681 
	C1351.987305,189.338257 1350.468140,211.867157 1340.941406,233.399643 
	C1336.499390,243.439621 1329.902100,251.935242 1321.456787,259.458313 
M1179.925903,153.620453 
	C1179.925903,181.174957 1179.925903,208.729462 1179.925903,235.994354 
	C1198.956665,235.994354 1217.298096,236.639236 1235.570312,235.792419 
	C1250.463257,235.102219 1262.119507,228.116409 1268.330811,213.654129 
	C1272.201172,204.642654 1272.660767,195.260498 1271.817505,185.758408 
	C1270.004395,165.328278 1256.049072,150.998718 1235.762695,149.905945 
	C1218.161499,148.957809 1200.490479,149.347107 1182.854248,148.963806 
	C1179.704102,148.895340 1179.770874,150.528458 1179.925903,153.620453 
z"/>
<path fill="#010101" opacity="1.000000" stroke="none" 
	d="
M1664.683350,324.000244 
	C1664.683350,352.797668 1664.683350,381.095062 1664.683350,409.695526 
	C1638.756592,409.695526 1613.189331,409.695526 1587.153564,409.695526 
	C1587.153564,365.377991 1587.153564,320.989990 1587.153564,276.344666 
	C1549.288940,276.344666 1511.890747,276.344666 1474.000977,276.344666 
	C1474.000977,320.781525 1474.000977,365.162872 1474.000977,409.770630 
	C1447.781860,409.770630 1422.053467,409.770630 1396.135254,409.770630 
	C1396.135254,302.834045 1396.135254,196.097824 1396.135254,89.076538 
	C1421.961426,89.076538 1447.683105,89.076538 1473.765869,89.076538 
	C1473.765869,131.256073 1473.765869,173.340012 1473.765869,215.719299 
	C1511.534668,215.719299 1548.945801,215.719299 1586.885742,215.719299 
	C1586.885742,173.681946 1586.885742,131.479019 1586.885742,89.035446 
	C1612.988525,89.035446 1638.563477,89.035446 1664.683350,89.035446 
	C1664.683350,167.300629 1664.683350,245.400421 1664.683350,324.000244 
z"/>
<path fill="#010101" opacity="1.000000" stroke="none" 
	d="
M727.835632,253.173248 
	C759.423340,305.357147 790.841553,357.217499 822.624329,409.679596 
	C820.756287,409.818695 819.540649,409.987610 818.324951,409.988251 
	C790.329346,410.003143 762.333313,409.926819 734.338684,410.095337 
	C730.977539,410.115570 729.427368,408.949799 727.843567,406.163544 
	C706.164124,368.024628 684.349854,329.962311 662.306763,291.422974 
	C661.119812,292.546814 660.022522,293.463745 659.066711,294.509918 
	C650.750427,303.612457 642.534973,312.808777 634.111877,321.810974 
	C631.800232,324.281586 630.823975,326.745178 630.844727,330.176819 
	C630.995117,355.005341 630.925415,379.835205 630.925415,404.664642 
	C630.925415,406.288910 630.925415,407.913177 630.925415,409.765381 
	C604.789856,409.765381 579.060364,409.765381 553.138367,409.765381 
	C553.138367,302.833618 553.138367,196.092178 553.138367,89.071426 
	C578.972778,89.071426 604.695312,89.071426 630.821167,89.071426 
	C630.821167,135.252716 630.821167,181.316360 630.821167,228.914673 
	C632.502075,226.451187 633.364807,225.190750 634.223511,223.927628 
	C664.152954,179.904846 694.062073,135.868103 724.097473,91.917694 
	C725.113098,90.431503 727.395508,88.933258 729.096191,88.923241 
	C759.423645,88.744522 789.752563,88.794350 820.081116,88.805618 
	C820.674255,88.805840 821.267395,88.933670 822.653687,89.093292 
	C815.193604,98.871643 808.177002,108.076752 801.151978,117.275490 
	C773.061340,154.058044 744.996277,190.860229 716.814758,227.572998 
	C714.860413,230.118942 714.723999,231.890442 716.477051,234.558884 
	C720.399353,240.529282 723.958862,246.738022 727.835632,253.173248 
z"/>
<path fill="#010101" opacity="1.000000" stroke="none" 
	d="
M1864.071411,396.991455 
	C1864.071411,401.469025 1864.071411,405.447937 1864.071411,409.711456 
	C1837.774902,409.711456 1811.703491,409.711456 1785.035645,409.711456 
	C1785.035645,407.994049 1785.035645,406.229218 1785.035645,404.464355 
	C1785.035645,369.970947 1785.117920,335.477020 1784.919067,300.984772 
	C1784.897217,297.191315 1783.964111,293.057709 1782.274170,289.670349 
	C1749.721558,224.422760 1716.992065,159.263504 1684.303955,94.083542 
	C1683.568970,92.618042 1682.891846,91.123482 1681.932739,89.106064 
	C1683.821533,88.987129 1685.371460,88.805603 1686.921387,88.804482 
	C1711.583374,88.786659 1736.246094,88.895088 1760.906250,88.683731 
	C1764.723511,88.651016 1766.355713,89.908501 1767.783325,93.290489 
	C1786.497070,137.621246 1805.360229,181.888901 1824.505737,226.924774 
	C1825.527222,224.671783 1826.327393,223.003815 1827.048462,221.302231 
	C1845.116821,178.659042 1863.210815,136.026596 1881.173218,93.338776 
	C1882.572021,90.014771 1884.158447,88.646896 1888.011963,88.680923 
	C1912.671997,88.898628 1937.334961,88.791946 1961.996948,88.791954 
	C1963.604370,88.791954 1965.211914,88.791946 1967.498535,88.791946 
	C1966.305542,91.340149 1965.459717,93.266899 1964.516235,95.144562 
	C1931.792358,160.274231 1899.034180,225.386627 1866.412354,290.567383 
	C1864.995972,293.397339 1864.185547,296.846466 1864.169800,300.012604 
	C1864.008667,332.172058 1864.071411,364.332581 1864.071411,396.991455 
z"/>
<path fill="#010101" opacity="1.000000" stroke="none" 
	d="
M905.512573,311.490234 
	C930.520386,256.649567 955.329346,202.131088 980.421753,146.989700 
	C929.500793,146.989700 879.148560,146.989700 828.428345,146.989700 
	C828.428345,127.461586 828.428345,108.420029 828.428345,89.083466 
	C905.426636,89.083466 982.453369,89.083466 1059.866211,89.083466 
	C1059.866211,102.286316 1059.912354,115.243301 1059.799683,128.198898 
	C1059.787476,129.598587 1058.920410,131.018219 1058.339722,132.381638 
	C1019.516052,223.526398 980.693604,314.671692 941.751404,405.765808 
	C941.014404,407.489685 938.860046,409.806030 937.346924,409.821045 
	C912.030090,410.072388 886.710022,410.000427 860.673645,410.000427 
	C875.683777,376.984894 890.498779,344.398651 905.512573,311.490234 
z"/>
<path fill="#040505" opacity="1.000000" stroke="none" 
	d="
M127.702911,432.179749 
	C128.467606,433.180542 129.232285,434.181335 129.703003,435.481934 
	C125.216255,439.281677 120.955139,442.703613 116.849228,446.302643 
	C112.423691,450.181824 108.143517,454.226807 103.799950,458.199493 
	C98.654587,454.175598 93.189369,450.496399 88.418518,446.068970 
	C66.277138,425.521454 48.600880,401.512085 34.978584,374.627106 
	C21.827991,348.673126 13.368955,321.184814 9.125896,292.333069 
	C4.467969,260.660248 6.219656,229.245575 14.215614,198.500992 
	C21.754059,169.515579 33.831165,142.277878 51.350037,117.622307 
	C63.871147,100.000435 77.607224,83.505089 93.935333,69.347946 
	C115.974213,50.239326 140.477936,35.063835 167.514389,23.892679 
	C199.870850,10.523351 233.565399,4.853782 268.360687,6.295046 
	C296.797607,7.472938 324.174438,14.035429 350.540558,24.933146 
	C378.283661,36.399990 402.603394,53.161621 424.740814,73.065857 
	C440.931732,87.623428 454.637543,104.504913 466.469788,122.836174 
	C466.907196,123.513870 467.109985,124.342995 467.115601,125.290367 
	C465.923828,125.918167 464.998169,126.291336 464.159454,126.806198 
	C454.716705,132.602966 445.287292,138.421494 435.854309,144.234192 
	C424.168640,130.281677 413.428680,115.380898 400.593811,102.580727 
	C376.393402,78.445702 347.405762,61.833813 314.268738,52.640804 
	C294.434937,47.138432 274.329529,43.830463 253.753204,44.383812 
	C216.501953,45.385586 181.754898,54.970352 149.761871,74.580986 
	C129.950546,86.724670 112.242760,101.148308 97.196671,118.787720 
	C79.521141,139.509781 65.986801,162.639542 56.648453,188.316025 
	C49.951885,206.728745 45.501183,225.679398 44.290020,245.065598 
	C41.983917,281.977875 48.423866,317.417328 64.300369,351.158142 
	C76.825859,377.777374 94.069214,400.732605 115.016869,421.107849 
	C118.581528,424.575134 122.453468,427.726471 126.473022,431.486053 
	C127.076019,432.025452 127.389465,432.102600 127.702911,432.179749 
z"/>
<path fill="#69A2BD" opacity="1.000000" stroke="none" 
	d="
M247.020203,88.963707 
	C253.232239,88.924667 259.480530,88.429977 265.650391,88.920868 
	C304.337769,91.998932 338.166779,106.450462 367.330780,132.189911 
	C386.960693,149.514816 402.070496,169.910660 411.176727,194.450653 
	C415.867096,207.090485 420.842133,219.875443 423.264160,233.040848 
	C426.097382,248.440994 426.369293,264.181458 424.455505,280.080109 
	C422.774536,294.044952 419.887878,307.497498 415.195099,320.609589 
	C408.443939,339.472778 398.460968,356.546417 386.063690,372.301880 
	C366.363007,397.339050 341.720001,415.803558 312.618317,428.485504 
	C310.952911,429.211273 309.144806,429.603027 307.426788,430.216553 
	C305.910614,430.757965 304.427551,431.392151 302.294464,432.237152 
	C302.139160,430.220276 301.922058,428.665894 301.915955,427.110718 
	C301.882721,418.612030 302.197113,410.098663 301.781738,401.620239 
	C301.562683,397.149384 302.970642,394.519928 306.947479,392.683075 
	C325.957153,383.902527 341.681335,370.854828 355.041229,354.900177 
	C367.833038,339.624054 376.854187,322.408478 382.478943,303.180298 
	C386.189575,290.495575 388.739044,277.669708 388.619141,264.618042 
	C388.493530,250.950089 387.625732,237.341187 383.794220,223.839417 
	C375.971039,196.271790 360.696320,173.801086 339.539124,155.161240 
	C328.800446,145.700272 316.216644,138.794327 303.050659,133.121918 
	C285.670898,125.634071 267.427856,123.104507 248.211151,123.398178 
	C247.996628,116.310928 248.430191,109.742119 248.331726,103.181297 
	C248.260513,98.436607 247.482819,93.702522 247.020203,88.963707 
z"/>
<path fill="#69A2BD" opacity="1.000000" stroke="none" 
	d="
M435.867126,144.583771 
	C445.287292,138.421494 454.716705,132.602966 464.159454,126.806198 
	C464.998169,126.291336 465.923828,125.918167 467.146729,125.614616 
	C469.902649,128.970932 472.722687,131.967010 474.671844,135.450424 
	C484.726379,153.419266 492.660828,172.339600 498.105682,192.180145 
	C502.492310,208.164658 506.113373,224.352188 506.167023,241.114944 
	C506.190338,248.407639 507.162750,255.709351 506.977325,262.988434 
	C506.423004,284.748779 503.946991,306.155853 497.403198,327.159637 
	C492.260803,343.665436 486.971375,360.024811 479.005096,375.366608 
	C470.678314,391.402679 460.796478,406.424347 449.377319,420.514526 
	C437.731110,434.884857 425.016144,448.186890 410.339844,459.294159 
	C397.751129,468.821533 384.122375,476.978851 370.906982,485.671234 
	C367.054504,488.205231 363.413971,486.986694 360.561218,483.989838 
	C356.443787,479.664429 352.580902,475.083588 348.791626,470.462311 
	C344.005249,464.625061 344.846008,460.532928 351.068970,456.483002 
	C361.887817,449.442139 372.836945,442.567627 383.309296,435.036316 
	C398.758636,423.925629 411.460785,409.935730 423.334351,395.153259 
	C437.644531,377.337311 448.780121,357.712921 456.627502,336.292297 
	C462.274597,320.877808 466.768188,305.017517 468.061676,288.639679 
	C469.393097,271.781555 470.829132,254.700668 469.512756,237.929703 
	C468.206390,221.286850 463.984314,204.866302 458.022247,188.963776 
	C452.197937,173.428650 445.170410,158.651398 435.867126,144.583771 
z"/>
<path fill="#040506" opacity="1.000000" stroke="none" 
	d="
M246.681396,88.964264 
	C247.482819,93.702522 248.260513,98.436607 248.331726,103.181297 
	C248.430191,109.742119 247.996628,116.310928 247.739319,123.266586 
	C231.571182,125.519615 215.915833,129.203293 201.515839,136.854630 
	C167.202682,155.086700 143.059509,182.233810 131.771729,219.684586 
	C119.407722,260.706055 125.040169,300.049377 146.494354,336.732971 
	C156.207886,353.341705 169.001541,367.906403 184.983307,379.964050 
	C185.250137,380.421844 185.615372,380.751068 185.615372,380.751068 
	C185.615372,380.751068 186.098785,380.660400 186.098785,380.660400 
	C186.987732,381.280426 187.876678,381.900482 188.953323,383.067627 
	C188.084778,384.810791 187.133224,386.123077 185.955215,387.183838 
	C178.650772,393.761261 171.295502,400.282166 163.957092,406.821808 
	C148.041290,395.684631 134.707306,381.895905 123.504539,366.152893 
	C108.458061,345.008423 97.920700,321.708496 92.368446,296.300995 
	C86.735374,270.523621 87.652794,244.882721 94.080414,219.295792 
	C100.019493,195.653595 109.845100,173.900452 125.071533,154.864594 
	C145.760727,128.999268 171.319656,109.421989 202.624939,98.077972 
	C211.759674,94.767838 221.493073,93.109871 231.645401,90.774231 
	C232.873245,90.578850 233.407761,90.303848 233.942276,90.028847 
	C237.056747,89.797348 240.171219,89.565857 243.943115,89.333130 
	C244.729721,89.208908 244.858902,89.085907 244.988068,88.962914 
	C245.439575,88.963547 245.891083,88.964180 246.681396,88.964264 
z"/>
<path fill="#69A2BD" opacity="1.000000" stroke="none" 
	d="
M103.763016,458.553253 
	C108.143517,454.226807 112.423691,450.181824 116.849228,446.302643 
	C120.955139,442.703613 125.216255,439.281677 129.775543,435.794098 
	C132.282516,436.904327 134.608170,437.746094 136.534897,439.139526 
	C156.882919,453.855072 179.231537,464.426727 203.401321,471.015442 
	C213.605576,473.797119 224.042999,475.753998 234.421432,477.853577 
	C239.767807,478.935120 240.772446,477.894501 240.791977,472.122162 
	C240.833130,459.959839 240.693039,447.795990 240.834610,435.635193 
	C240.967300,424.238708 241.564545,412.846191 241.612030,401.450470 
	C241.744354,369.695618 241.697510,337.940002 241.721237,306.184692 
	C241.726227,299.500000 241.675995,300.169525 248.246201,300.658722 
	C255.283951,301.182709 262.429504,300.300018 269.525055,299.967834 
	C270.794189,299.908417 272.048920,299.540680 273.684967,299.248383 
	C273.684967,370.916779 273.684967,442.147430 273.684967,514.566284 
	C265.188385,514.758301 256.789124,515.326660 248.420624,515.029175 
	C240.311478,514.740967 232.187256,513.885010 224.150497,512.720581 
	C185.392151,507.104736 150.195831,492.525238 118.251877,469.991760 
	C113.278351,466.483398 108.561577,462.611053 103.763016,458.553253 
z"/>
<path fill="#6AA2BD" opacity="1.000000" stroke="none" 
	d="
M247.637268,159.421951 
	C271.947510,157.335052 294.106537,163.569473 313.826843,177.645935 
	C336.013275,193.482697 350.205719,214.981140 355.577240,241.766769 
	C360.423431,265.932617 356.874329,289.091888 345.554779,311.098877 
	C336.649231,328.412598 324.470490,342.705383 308.110809,353.346619 
	C306.486420,354.403229 304.766815,355.313446 302.294800,356.756622 
	C302.122131,354.352509 301.918640,352.807648 301.914948,351.262329 
	C301.887878,339.936707 301.748047,328.607269 302.026947,317.288452 
	C302.084381,314.957703 303.151703,312.060638 304.773560,310.454895 
	C315.871643,299.466980 323.208069,286.205750 325.442749,271.047577 
	C329.827728,241.303406 321.405182,212.127594 292.088440,194.236893 
	C278.125793,185.716110 263.184784,183.452164 247.040436,184.963348 
	C247.307465,184.002167 248.266144,183.599670 248.259277,183.214371 
	C248.117981,175.282394 247.866699,167.352371 247.637268,159.421951 
z"/>
<path fill="#050607" opacity="1.000000" stroke="none" 
	d="
M247.270660,159.457825 
	C247.866699,167.352371 248.117981,175.282394 248.259277,183.214371 
	C248.266144,183.599670 247.307465,184.002167 246.666199,184.719772 
	C216.633072,191.280807 197.622604,209.565948 190.429581,238.811050 
	C183.502472,266.974976 190.618149,291.959625 212.146423,312.923584 
	C212.899490,317.799042 210.893463,320.178864 207.434784,322.410065 
	C200.652802,326.785126 194.240082,331.732544 187.674545,336.443115 
	C182.621521,329.951721 176.876328,323.878174 172.654495,316.884979 
	C162.799484,300.560730 157.432816,282.559387 156.767670,263.525055 
	C156.331314,251.037949 158.503693,238.673523 162.937149,226.866638 
	C172.608582,201.110367 189.349716,181.272842 214.217621,169.447357 
	C224.390457,164.609833 235.966415,162.722931 247.270660,159.457825 
z"/>
<path fill="#68A1BB" opacity="1.000000" stroke="none" 
	d="
M291.441406,222.809952 
	C299.442566,232.828598 302.160431,244.382294 300.975464,256.915619 
	C300.846191,258.282623 299.023621,260.039124 297.578705,260.649170 
	C277.684937,269.047974 257.746185,277.342255 237.756088,285.509399 
	C231.580704,288.032379 227.905350,286.756317 223.735977,280.863007 
	C218.941406,274.085968 215.158264,266.824646 214.012009,258.414490 
	C213.772919,256.660339 212.953766,254.985275 212.949692,253.053314 
	C215.303284,252.833664 217.316467,253.365616 218.883286,252.754044 
	C236.823349,245.751328 254.729248,238.657547 272.567780,231.400101 
	C278.965057,228.797440 285.156189,225.688049 291.441406,222.809952 
z"/>
<path fill="#050708" opacity="1.000000" stroke="none" 
	d="
M291.292725,222.496399 
	C285.156189,225.688049 278.965057,228.797440 272.567780,231.400101 
	C254.729248,238.657547 236.823349,245.751328 218.883286,252.754044 
	C217.316467,253.365616 215.303284,252.833664 213.177872,252.717499 
	C212.868301,251.438126 212.878296,250.274139 213.166214,248.615265 
	C213.444611,247.325912 213.445084,246.531464 213.445572,245.737000 
	C216.126099,213.885651 250.178101,197.118851 276.762268,210.319809 
	C282.183136,213.011642 286.381897,218.164490 291.292725,222.496399 
z"/>
<path fill="#6AA1BB" opacity="1.000000" stroke="none" 
	d="
M164.121048,407.128296 
	C171.295502,400.282166 178.650772,393.761261 185.955215,387.183838 
	C187.133224,386.123077 188.084778,384.810791 189.218079,383.257874 
	C196.374573,386.785919 203.596008,390.443848 210.431931,394.718262 
	C212.105560,395.764832 213.280441,398.795654 213.375259,400.971252 
	C213.749680,409.562164 213.636230,418.175812 213.635941,426.781006 
	C213.635788,430.974609 212.042938,431.687286 206.689117,429.643250 
	C191.683594,423.914276 177.036957,417.476807 164.121048,407.128296 
z"/>
<path fill="#6AA0B9" opacity="1.000000" stroke="none" 
	d="
M187.733643,336.780487 
	C194.240082,331.732544 200.652802,326.785126 207.434784,322.410065 
	C210.893463,320.178864 212.899490,317.799042 212.340164,313.208618 
	C212.931046,313.910370 213.777023,315.021698 213.780212,316.135437 
	C213.814041,327.941559 213.746399,339.748322 213.633911,351.554260 
	C213.591110,356.046295 212.366989,356.910889 208.815140,354.220398 
	C201.618622,348.769165 194.779312,342.846313 187.733643,336.780487 
z"/>
<path fill="#68A1BB" opacity="1.000000" stroke="none" 
	d="
M213.114258,245.845596 
	C213.445084,246.531464 213.444611,247.325912 213.162354,248.268555 
	C212.848038,247.595886 212.815506,246.775040 213.114258,245.845596 
z"/>
<path fill="#69A2BD" opacity="1.000000" stroke="none" 
	d="
M233.855896,89.780434 
	C233.407761,90.303848 232.873245,90.578850 232.060730,90.660141 
	C232.445007,90.154953 233.107269,89.843483 233.855896,89.780434 
z"/>
<path fill="#69A2BD" opacity="1.000000" stroke="none" 
	d="
M244.942169,88.757523 
	C244.858902,89.085907 244.729721,89.208908 244.357498,89.220741 
	C244.375061,88.923767 244.635666,88.737953 244.942169,88.757523 
z"/>
<path fill="#6AA1BB" opacity="1.000000" stroke="none" 
	d="
M186.108856,380.413452 
	C186.098785,380.660400 185.615372,380.751068 185.615372,380.751068 
	C185.615372,380.751068 185.250137,380.421844 185.251923,380.176392 
	C185.614624,379.742920 185.903046,379.821442 186.108856,380.413452 
z"/>
<path fill="#69A2BD" opacity="1.000000" stroke="none" 
	d="
M127.687157,431.909912 
	C127.389465,432.102600 127.076019,432.025452 126.747528,431.685333 
	C127.045456,431.494904 127.358429,431.567474 127.687157,431.909912 
z"/>
<path fill="#FEFEFE" opacity="1.000000" stroke="none" 
	d="
M1179.926025,153.134811 
	C1179.770874,150.528458 1179.704102,148.895340 1182.854248,148.963806 
	C1200.490479,149.347107 1218.161499,148.957809 1235.762695,149.905945 
	C1256.049072,150.998718 1270.004395,165.328278 1271.817505,185.758408 
	C1272.660767,195.260498 1272.201172,204.642654 1268.330811,213.654129 
	C1262.119507,228.116409 1250.463257,235.102219 1235.570312,235.792419 
	C1217.298096,236.639236 1198.956665,235.994354 1179.925903,235.994354 
	C1179.925903,208.729462 1179.925903,181.174957 1179.926025,153.134811 
z"/>
</svg>